<svg width="23" height="25" viewBox="0 0 23 25" fill="none" xmlns="http://www.w3.org/2000/svg">
<path d="M6.09843 12.7274L-0.179993 25H1.95492L7.16589 14.8118L8.15123 16.7383L3.92562 25H6.06053L9.21869 18.8258L10.204 20.7523L8.03122 25H10.1661L11.2715 22.8367L12.38 25H14.5276L12.3516 20.7523L11.2841 18.6647L10.2988 16.7383L9.21869 14.6507L8.23335 12.7274L7.16589 10.6398L6.09843 12.7274Z" fill="white"/>
<path d="M18.63 25L14.4044 16.7383L13.3369 14.6507L12.3516 12.7274L11.2841 10.6398L10.2988 8.71336L9.21869 6.63214L8.15123 8.71336L9.21869 10.8009L10.204 12.7274L11.2715 14.8118L12.2568 16.7383L13.3369 18.8258L16.4951 25H18.63Z" fill="white"/>
<path d="M22.7356 25L16.4572 12.7274L22.9598 0H20.8249L15.3897 10.6398L14.4044 8.71336L18.8574 0H16.7225L13.3243 6.63214L12.339 4.7025L14.7518 0H12.6169L11.2715 2.61496L10.204 4.7025L11.2715 6.78689L12.2568 8.71336L13.3369 10.8009L14.3223 12.7274L15.3897 14.8118L20.6007 25H22.7356Z" fill="white"/>
</svg>
